Coordinates
version=1
nRows=24
nColumns=22
inDegrees=yes

Units are S.I. units (second, meters, Newtons, ...)
If the header above contains a line with 'inDegrees', this indicates whether rotational values are in degrees (yes) or radians (no).

endheader
time	pelvis_tilt	pelvis_list	pelvis_rotation	pelvis_tx	pelvis_ty	pelvis_tz	hip_flexion_r	hip_adduction_r	hip_rotation_r	knee_angle_r	ankle_angle_r	subtalar_angle_r	hip_flexion_l	hip_adduction_l	hip_rotation_l	knee_angle_l	ankle_angle_l	subtalar_angle_l	lumbar_extension	lumbar_bending	lumbar_rotation
      1.54000000	     -4.11645365	      2.32481109	     -7.00513322	     -1.00217358	      0.87126552	     -0.13076209	     33.97048930	     -9.96855085	     11.89188360	    -64.59092706	      3.20628885	      6.89128174	     -4.09456160	      2.20413546	     -6.29299111	     -7.95010809	     21.82869580	      3.49122179	     -6.27895344	     -5.10508533	      3.42767276
      1.55000000	     -4.10973186	      1.89239163	     -6.39971466	     -0.99834159	      0.87149465	     -0.13198141	     34.77371674	     -9.61168478	     11.33078464	    -64.79616637	      3.60628868	      6.74763739	     -4.36926274	      1.76524299	     -5.79203051	     -7.96828308	     21.93573409	      3.47636092	     -6.56714927	     -4.62057584	      2.54681158
      1.56000000	     -4.14032737	      1.45046216	     -5.81671976	     -0.99439345	      0.87168392	     -0.13314756	     35.50471054	     -9.29179774	     10.70790301	    -64.58051709	      3.99987468	      6.64463165	     -4.56685445	      1.30836205	     -5.28805958	     -8.05849464	     22.05498105	      3.40836291	     -6.80112398	     -4.10941937	      1.73495024
      1.57000000	     -4.19529864	      0.99391985	     -5.27184842	     -0.99031940	      0.87184382	     -0.13423691	     36.14730117	     -8.99163540	     10.04774858	    -63.94941428	      4.32209927	      6.57836186	     -4.70565157	      0.83218666	     -4.80323559	     -8.21774510	     22.19670912	      3.27903485	     -6.99566948	     -3.57308647	      0.99296302
      1.58000000	     -4.26687983	      0.52597829	     -4.78200058	     -0.98610587	      0.87195996	     -0.13523081	     36.69725199	     -8.69316143	      9.39397639	    -62.92377937	      4.55780876	      6.55610100	     -4.80346002	      0.34445157	     -4.34410106	     -8.43549834	     22.35696145	      3.10126142	     -7.15777547	     -3.01698144	      0.33914489
      1.59000000	     -4.34475252	      0.04876193	     -4.35447048	     -0.98173297	      0.87202572	     -0.13610089	     37.14019634	     -8.38318687	      8.77339474	    -61.51751553	      4.68632685	      6.56883387	     -4.87846444	     -0.15191961	     -3.92987985	     -8.70382912	     22.54327845	      2.87491492	     -7.29860487	     -2.44954305	     -0.22504634
      1.60000000	     -4.42131607	     -0.43233358	     -3.99178912	     -0.97719289	      0.87202344	     -0.13683521	     37.46871445	     -8.05235479	      8.21681915	    -59.75126469	      4.70934698	      6.61819616	     -4.94276369	     -0.65000760	     -3.56148984	     -9.01970664	     22.75194056	      2.60413369	     -7.42917874	     -1.87712137	     -0.69990451
      1.61000000	     -4.49322379	     -0.90001271	     -3.69841510	     -0.97245143	      0.87191561	     -0.13740362	     37.68776027	     -7.70750178	      7.74738961	    -57.65584342	      4.62689411	      6.71054919	     -5.00907344	     -1.13183181	     -3.23736349	     -9.37614070	     22.99065108	      2.31463643	     -7.54719910	     -1.32560815	     -1.08967679
      1.62000000	     -4.55851956	     -1.35574528	     -3.45528394	     -0.96751616	      0.87168580	     -0.13782694	     37.79134557	     -7.34966558	      7.36972546	    -55.25035251	      4.45015596	      6.85256881	     -5.07824921	     -1.60112389	     -2.95061646	     -9.77114670	     23.25736720	      2.00891729	     -7.66138508	     -0.78848131	     -1.40924959
      1.63000000	     -4.61585304	     -1.78747093	     -3.25802809	     -0.96237232	      0.87130567	     -0.13810344	     37.78592749	     -6.98826068	      7.09900533	    -52.56811533	      4.19170785	      7.04507716	     -5.15594234	     -2.04496763	     -2.69495992	    -10.20051656	     23.56033879	      1.70182823	     -7.77128974	     -0.28103185	     -1.67868368
      1.64000000	     -4.66829952	     -2.18299174	     -3.09916061	     -0.95701633	      0.87074279	     -0.13823675	     37.68736040	     -6.64301605	      6.92873464	    -49.64348471	      3.87185037	      7.28634555	     -5.24242454	     -2.45251946	     -2.46832966	    -10.65986406	     23.88790018	      1.39945592	     -7.87140000	      0.18274956	     -1.90218986
      1.65000000	     -4.70957102	     -2.53647787	     -2.96589554	     -0.95145533	      0.86999213	     -0.13826558	     37.49666432	     -6.33022908	      6.85032694	    -46.51405628	      3.52092819	      7.58771255	     -5.34548890	     -2.81561670	     -2.26439778	    -11.14148454	     24.24373255	      1.09193733	     -7.97321186	      0.60196637	     -2.09137298
      1.66000000	     -4.76037175	     -2.83573023	     -2.85440068	     -0.94569246	      0.86900214	     -0.13818230	     37.25702177	     -6.06150281	      6.86092823	    -43.22999840	      3.14677727	      7.90287785	     -5.44938016	     -3.12445732	     -2.08420931	    -11.63271383	     24.62182358	      0.81151436	     -8.05087247	      0.96161225	     -2.26485642
      1.67000000	     -4.80309576	     -3.07746711	     -2.75420884	     -0.93971937	      0.86779225	     -0.13801514	     36.96250687	     -5.85044610	      6.93783613	    -39.83794144	      2.79555181	      8.24236527	     -5.57741182	     -3.37377689	     -1.91693039	    -12.12453761	     25.02212460	      0.54722545	     -8.12483181	      1.26055825	     -2.42769704
      1.68000000	     -4.83293360	     -3.25392723	     -2.65663730	     -0.93353994	      0.86637162	     -0.13779366	     36.62535370	     -5.70928283	      7.06831223	    -36.38746685	      2.47469305	      8.61800721	     -5.74273210	     -3.55418875	     -1.75143463	    -12.59852208	     25.42997256	      0.29840320	     -8.20384512	      1.49170736	     -2.58823581
      1.69000000	     -4.90204448	     -3.40165197	     -2.56072847	     -0.92713056	      0.86465911	     -0.13748943	     36.30867580	     -5.59425964	      7.23028047	    -32.92910930	      2.23576699	      8.87740214	     -5.89157825	     -3.71602522	     -1.62281538	    -13.05981881	     25.89836536	      0.12800662	     -8.22086884	      1.70210142	     -2.76800780
      1.70000000	     -4.95402056	     -3.49999089	     -2.45292796	     -0.92052636	      0.86277348	     -0.13711911	     35.96773103	     -5.52915262	      7.42994278	    -29.50403843	      2.06859085	      9.14382974	     -6.08990185	     -3.83406520	     -1.49184118	    -13.48550718	     26.36495955	     -0.00013790	     -8.25224502	      1.85806767	     -2.95422070
      1.71000000	     -5.00930265	     -3.56231175	     -2.33924125	     -0.91372181	      0.86069836	     -0.13670068	     35.63451585	     -5.49581231	      7.66526734	    -26.15215589	      1.96568421	      9.40817313	     -6.32061069	     -3.92349680	     -1.37980426	    -13.87302819	     26.84080335	     -0.07069219	     -8.27174326	      1.98401269	     -3.14916708
      1.72000000	     -5.06055187	     -3.59463078	     -2.21774590	     -0.90672947	      0.85846869	     -0.13622017	     35.30790300	     -5.48571671	      7.94139062	    -22.90786627	      1.93720573	      9.70975249	     -6.59293830	     -3.99355425	     -1.28897118	    -14.21801014	     27.32017189	     -0.07011640	     -8.29205170	      2.08328136	     -3.34923990
      1.73000000	     -5.09723290	     -3.58869633	     -2.08973875	     -0.89956971	      0.85611666	     -0.13568589	     34.98654621	     -5.50808387	      8.25911930	    -19.80319087	      1.97422649	     10.13424562	     -6.91634897	     -4.03472233	     -1.21802563	    -14.52134591	     27.80240162	      0.03867571	     -8.32865014	      2.14561683	     -3.55425109
      1.74000000	     -5.15893466	     -3.57512885	     -1.96204081	     -0.89222289	      0.85361167	     -0.13505382	     34.70945644	     -5.52885682	      8.58615393	    -16.86250433	      2.05559075	     10.58786673	     -7.25191901	     -4.08561617	     -1.18473583	    -14.78427717	     28.26468324	      0.20909337	     -8.33235721	      2.20480242	     -3.75775781
      1.75000000	     -5.23159901	     -3.55317430	     -1.83580665	     -0.88466732	      0.85099795	     -0.13433334	     34.46601374	     -5.55217302	      8.87538906	    -14.11707662	      2.15677996	     11.09056010	     -7.62911800	     -4.14330397	     -1.18220276	    -14.98048004	     28.67938963	      0.41734724	     -8.31656419	      2.26184540	     -3.96873540
      1.76000000	     -5.27414772	     -3.49521751	     -1.70022146	     -0.87691939	      0.84834042	     -0.13354755	     34.23376578	     -5.60927171	      9.06228098	    -11.63080292	      2.31418309	     11.78313005	     -8.07744764	     -4.17505905	     -1.18342911	    -15.13316053	     29.06733983	      0.72896060	     -8.33489199	      2.28168598	     -4.18122947
      1.77000000	     -5.30823573	     -3.38644101	     -1.55907214	     -0.86898942	      0.84561004	     -0.13267434	     34.06638309	     -5.70153746	      9.08422661	     -9.48797058	      2.54038982	     12.64743733	     -8.56169431	     -4.16840705	     -1.20329272	    -15.26420828	     29.44244071	      1.13511712	     -8.36154296	      2.24612741	     -4.40170824
